<?xml version="1.0" encoding="UTF-8"?>
<svg width="112px" height="50px" viewBox="0 0 112 50" version="1.1" xmlns="http://www.w3.org/2000/svg" xmlns:xlink="http://www.w3.org/1999/xlink">
    <!-- Generator: sketchtool 52.2 (67145) - http://www.bohemiancoding.com/sketch -->
    <title>620FA2C2-C1D8-44F7-A811-EC9F02C33871</title>
    <desc>Created with sketchtool.</desc>
    <g id="AKD---Novosti" stroke="none" stroke-width="1" fill="none" fill-rule="evenodd">
        <g id="AKD-novosti_list_D" transform="translate(-664.000000, -2962.000000)" fill="#229EFF">
            <g id="Footer" transform="translate(130.000000, 2391.000000)">
                <path d="M601.666775,594.655681 C601.778053,594.594542 601.905652,594.56099 602.039928,594.56099 C602.473913,594.56099 602.824068,594.914405 602.824068,595.350582 C602.824068,595.786013 602.473913,596.140173 602.039928,596.140173 C601.905652,596.140173 601.778053,596.105875 601.666775,596.045482 L601.666775,594.655681 Z M601.666775,588.79824 C601.783988,588.758724 601.908619,588.739338 602.039928,588.739338 C602.699436,588.739338 603.235055,589.277662 603.235055,589.942738 C603.235055,590.608559 602.699436,591.146138 602.039928,591.146138 C601.908619,591.146138 601.783988,591.126007 601.666775,591.08649 L601.666775,588.79824 Z M601.666775,582.962422 C601.785472,582.933343 601.912329,582.918431 602.039928,582.918431 C602.927186,582.918431 603.645301,583.643155 603.645301,584.53564 C603.645301,585.429615 602.927186,586.153594 602.039928,586.153594 C601.912329,586.153594 601.785472,586.137936 601.666775,586.108858 L601.666775,582.962422 Z M606.690614,600.756934 C606.690614,600.359529 607.011095,600.037429 607.406503,600.037429 C607.80117,600.037429 608.122393,600.359529 608.122393,600.756934 C608.122393,601.157322 607.80117,601.476439 607.406503,601.476439 C607.011095,601.476439 606.690614,601.157322 606.690614,600.756934 Z M604.350804,603.461974 C604.350804,603.253952 604.517722,603.083955 604.723957,603.083955 C604.929451,603.083955 605.097852,603.253952 605.097852,603.461974 C605.097852,603.669997 604.929451,603.837757 604.723957,603.837757 C604.517722,603.837757 604.350804,603.669997 604.350804,603.461974 Z M603.97691,598.054876 C603.97691,597.639576 604.310744,597.301074 604.723957,597.301074 C605.134945,597.301074 605.469521,597.639576 605.469521,598.054876 C605.469521,598.470922 605.134945,598.805696 604.723957,598.805696 C604.310744,598.805696 603.97691,598.470922 603.97691,598.054876 Z M603.603757,592.646287 C603.603757,592.02371 604.103767,591.516701 604.723957,591.516701 C605.34118,591.516701 605.843416,592.02371 605.843416,592.646287 C605.843416,593.270355 605.34118,593.774381 604.723957,593.774381 C604.103767,593.774381 603.603757,593.270355 603.603757,592.646287 Z M603.229862,587.239934 C603.229862,586.407844 603.898273,585.734566 604.723957,585.734566 C605.548158,585.734566 606.216569,586.407844 606.216569,587.239934 C606.216569,588.071279 605.548158,588.743812 604.723957,588.743812 C603.898273,588.743812 603.229862,588.071279 603.229862,587.239934 Z M606.347877,595.350582 C606.347877,594.761557 606.823406,594.285118 607.406503,594.285118 C607.989601,594.285118 608.46513,594.761557 608.46513,595.350582 C608.46513,595.940352 607.989601,596.416045 607.406503,596.416045 C606.823406,596.416045 606.347877,595.940352 606.347877,595.350582 Z M606.006624,589.942738 C606.006624,589.163585 606.633491,588.532806 607.406503,588.532806 C608.179516,588.532806 608.807866,589.163585 608.807866,589.942738 C608.807866,590.721145 608.179516,591.353415 607.406503,591.353415 C606.633491,591.353415 606.006624,590.721145 606.006624,589.942738 Z M605.663887,584.53564 C605.663887,583.566358 606.443576,582.779749 607.406503,582.779749 C608.36943,582.779749 609.149119,583.566358 609.149119,584.53564 C609.149119,585.505667 608.36943,586.29153 607.406503,586.29153 C606.443576,586.29153 605.663887,585.505667 605.663887,584.53564 Z M609.406543,603.461974 C609.406543,603.080227 609.712187,602.773785 610.089049,602.773785 C610.468879,602.773785 610.773781,603.080227 610.773781,603.461974 C610.773781,603.84074 610.468879,604.15091 610.089049,604.15091 C609.712187,604.15091 609.406543,603.84074 609.406543,603.461974 Z M609.094964,598.054876 C609.094964,597.499404 609.539335,597.049806 610.089049,597.049806 C610.640247,597.049806 611.086101,597.499404 611.086101,598.054876 C611.086101,598.607367 610.640247,599.056964 610.089049,599.056964 C609.539335,599.056964 609.094964,598.607367 609.094964,598.054876 Z M608.783385,592.646287 C608.783385,591.919326 609.367966,591.329556 610.089049,591.329556 C610.810873,591.329556 611.396197,591.919326 611.396197,592.646287 C611.396197,593.373993 610.810873,593.963764 610.089049,593.963764 C609.367966,593.963764 608.783385,593.373993 608.783385,592.646287 Z M608.471064,587.239934 C608.471064,586.339248 609.196598,585.609305 610.089049,585.609305 C610.983726,585.609305 611.707776,586.339248 611.707776,587.239934 C611.707776,588.138384 610.983726,588.869818 610.089049,588.869818 C609.196598,588.869818 608.471064,588.138384 608.471064,587.239934 Z M611.814603,600.756934 C611.814603,600.223084 612.243395,599.788398 612.774562,599.788398 C612.905129,599.788398 613.031986,599.817477 613.146231,599.866687 L613.146231,601.65091 C613.031986,601.700119 612.905129,601.724724 612.774562,601.724724 C612.243395,601.724724 611.814603,601.290784 611.814603,600.756934 Z M611.520828,595.350582 C611.520828,594.652699 612.079445,594.087534 612.774562,594.087534 C612.903645,594.087534 613.029018,594.107665 613.146231,594.143454 L613.146231,596.556964 C613.029018,596.592753 612.903645,596.612138 612.774562,596.612138 C612.079445,596.612138 611.520828,596.048464 611.520828,595.350582 Z M611.227796,589.942738 C611.227796,589.082314 611.919204,588.384432 612.774562,588.384432 C612.900678,588.384432 613.027535,588.399344 613.146231,588.430659 L613.146231,591.455562 C613.027535,591.485386 612.900678,591.500298 612.774562,591.500298 C611.919204,591.500298 611.227796,590.803907 611.227796,589.942738 Z M610.934763,584.53564 C610.934763,583.511184 611.756738,582.682821 612.774562,582.682821 C612.900678,582.682821 613.026051,582.694005 613.146231,582.719356 L613.146231,586.350432 C613.026051,586.375037 612.900678,586.389204 612.774562,586.389204 C611.756738,586.389204 610.934763,585.55935 610.934763,584.53564 Z M607.03335,606.164032 C607.03335,605.956755 607.199526,605.788249 607.406503,605.788249 C607.613481,605.788249 607.779656,605.956755 607.779656,606.164032 C607.779656,606.371309 607.613481,606.539815 607.406503,606.539815 C607.199526,606.539815 607.03335,606.371309 607.03335,606.164032 Z M612.107635,606.164032 C612.107635,605.79496 612.405861,605.494483 612.774562,605.494483 C612.910322,605.494483 613.040146,605.533999 613.146231,605.609305 L613.146231,606.723233 C613.040146,606.794065 612.910322,606.838055 612.774562,606.838055 C612.405861,606.838055 612.107635,606.536087 612.107635,606.164032 Z M609.716638,608.869072 C609.716638,608.661795 609.883555,608.494781 610.089049,608.494781 C610.295285,608.494781 610.462202,608.661795 610.462202,608.869072 C610.462202,609.077841 610.295285,609.244855 610.089049,609.244855 C609.883555,609.244855 609.716638,609.077841 609.716638,608.869072 Z M612.400668,611.571876 C612.400668,611.363853 612.567585,611.196093 612.774562,611.196093 C612.979314,611.196093 613.146231,611.363853 613.146231,611.571876 C613.146231,611.779899 612.979314,611.946913 612.774562,611.946913 C612.567585,611.946913 612.400668,611.779899 612.400668,611.571876 Z M601.666775,600.756934 C601.666775,600.548911 601.83295,600.381151 602.039928,600.381151 C602.245421,600.381151 602.412339,600.548911 602.412339,600.756934 C602.412339,600.964211 602.245421,601.131971 602.039928,601.131971 C601.83295,601.131971 601.666775,600.964211 601.666775,600.756934 Z M563.788426,603.700567 L563.788426,591.685953 C563.680115,592.564271 561.530962,594.44915 558.915184,595.592902 L550.758493,598.880256 C546.190895,600.745004 543.581051,604.13898 543.581051,609.291828 C543.581051,613.783328 544.885973,618.809424 551.62943,618.809424 C561.307664,618.809424 563.788426,609.619893 563.788426,603.700567 Z M610.706272,578.594691 C610.511906,578.650611 610.304929,578.681927 610.089049,578.681927 C609.85759,578.681927 609.632067,578.646138 609.419154,578.579034 C609.465149,578.752759 609.490372,578.937668 609.490372,579.128542 C609.490372,579.46779 609.40951,579.78989 609.267816,580.072472 C609.517821,579.955413 609.795275,579.889055 610.089049,579.889055 C610.3576,579.889055 610.610573,579.942738 610.842031,580.041903 C610.712207,579.764539 610.641731,579.453624 610.641731,579.128542 C610.641731,578.944378 610.663244,578.76618 610.706272,578.594691 Z M605.393852,578.579034 C605.182423,578.646138 604.9569,578.681927 604.723957,578.681927 C604.460599,578.681927 604.208368,578.634954 603.973942,578.551446 C604.028098,578.734119 604.05703,578.927975 604.05703,579.128542 C604.05703,579.537877 603.935366,579.921115 603.726905,580.240978 C604.015486,580.056815 604.356739,579.950194 604.723957,579.950194 C605.039245,579.950194 605.335245,580.029228 605.594153,580.167164 C605.422042,579.862213 605.323376,579.506561 605.323376,579.128542 C605.323376,578.937668 605.347857,578.752759 605.393852,578.579034 Z M607.86942,576.120042 C607.721049,576.150611 607.563776,576.165523 607.406503,576.165523 C607.24923,576.165523 607.093441,576.150611 606.943586,576.120042 C606.956197,576.219952 606.963616,576.320608 606.963616,576.424247 C606.963616,576.660602 606.928007,576.88652 606.860498,577.100507 C607.034834,577.053534 607.218072,577.028184 607.406503,577.028184 C607.594934,577.028184 607.778172,577.053534 607.952508,577.100507 C607.884999,576.88652 607.850874,576.660602 607.850874,576.424247 C607.850874,576.320608 607.857551,576.219952 607.86942,576.120042 Z M598.010174,574.21354 L581.74353,590.613033 L608.866473,617.943782 L614.371775,617.943782 C632.532373,617.943782 632.532373,599.100209 632.532373,595.373695 C632.532373,583.758724 627.748154,574.21354 614.589138,574.21354 L613.146231,574.21354 L613.146231,576.137936 C613.024567,576.155831 612.900678,576.165523 612.774562,576.165523 C612.61358,576.165523 612.459274,576.150611 612.310161,576.120042 C612.323515,576.219952 612.32945,576.320608 612.32945,576.424247 C612.32945,576.640471 612.299034,576.847748 612.243395,577.045333 C612.413279,577.001342 612.590582,576.978974 612.774562,576.978974 C612.900678,576.978974 613.026051,576.990904 613.146231,577.011035 L613.146231,581.243812 C613.026051,581.265434 612.900678,581.277364 612.774562,581.277364 C612.448146,581.277364 612.14176,581.203549 611.866532,581.073814 C611.963715,581.305696 612.017871,581.562183 612.017871,581.832091 C612.017871,582.905756 611.15361,583.775872 610.089049,583.775872 C609.024488,583.775872 608.160969,582.905756 608.160969,581.832091 C608.160969,581.535341 608.227736,581.254996 608.344949,581.005219 C608.062303,581.148375 607.742563,581.228899 607.406503,581.228899 C607.029641,581.228899 606.678002,581.127498 606.375325,580.952282 C606.511085,581.213987 606.589721,581.514465 606.589721,581.832091 C606.589721,582.869222 605.755135,583.711751 604.723957,583.711751 C603.69278,583.711751 602.856709,582.869222 602.856709,581.832091 C602.856709,581.462273 602.961311,581.118551 603.143807,580.828512 C602.827035,581.038026 602.447206,581.160304 602.039928,581.160304 C601.912329,581.160304 601.786955,581.148375 601.666775,581.124515 L601.666775,577.130331 C601.786955,577.107963 601.912329,577.096033 602.039928,577.096033 C602.239487,577.096033 602.430885,577.125857 602.611156,577.179541 C602.529552,576.94244 602.483557,576.68819 602.483557,576.424247 C602.483557,576.320608 602.489491,576.219952 602.503587,576.120042 C602.353732,576.150611 602.199426,576.165523 602.039928,576.165523 C601.912329,576.165523 601.788439,576.155831 601.666775,576.137936 L601.666775,574.21354 L598.010174,574.21354 Z M590.000371,619.587832 L590.000371,617.943782 L595.395879,617.943782 L574.465196,596.854459 L574.465196,617.943782 L580.199731,617.943782 L580.199731,619.587832 L563.788426,619.587832 L563.788426,612.576946 C562.593298,615.315538 560.091023,621 549.324488,621 C537.253774,621 534,614.987474 534,610.495228 C534,600.195497 544.213853,599.209812 552.260749,596.579332 C560.094732,594.007754 563.789909,591.2796 563.789909,587.142261 L563.788426,583.97793 C563.788426,576.964062 562.919714,572.568744 555.74153,572.568744 C550.956568,572.568744 547.476529,574.333582 547.476529,578.05935 C547.476529,581.386967 548.906083,581.847748 548.906083,584.417089 C548.906083,586.387712 546.070715,588.552938 543.351076,588.552938 C538.566114,588.552938 537.263418,586.059648 537.263418,583.318819 C537.263418,576.854459 544.431216,571 555.524167,571 C568.900545,571 574.465196,578.498509 574.465196,586.2796 L574.465196,595.321503 L595.414425,574.21354 L590.000371,574.21354 L590.000371,572.568744 L617.42599,572.568744 C634.826187,572.568744 646,583.478378 646,596.079034 C646,613.942141 627.945487,619.587832 617.50611,619.587832 L590.000371,619.587832 Z" id="akd_logo"></path>
            </g>
        </g>
    </g>
</svg>