<!DOCTYPE svg PUBLIC "-//W3C//DTD SVG 1.1//EN" "http://www.w3.org/Graphics/SVG/1.1/DTD/svg11.dtd">
<!-- Uploaded to: SVG Repo, www.svgrepo.com, Transformed by: SVG Repo Mixer Tools -->
<svg fill="#0b2275" version="1.1" id="Capa_1" xmlns="http://www.w3.org/2000/svg" xmlns:xlink="http://www.w3.org/1999/xlink" width="800px" height="800px" viewBox="0 0 65.344 65.344" xml:space="preserve" transform="rotate(0)">
<g id="SVGRepo_bgCarrier" stroke-width="0"/>
<g id="SVGRepo_tracerCarrier" stroke-linecap="round" stroke-linejoin="round"/>
<g id="SVGRepo_iconCarrier"> <g> <g> <g> <path d="M32.672,65.344C14.656,65.344,0,50.688,0,32.672C0,14.656,14.656,0,32.672,0c18.016,0,32.672,14.656,32.672,32.672 C65.344,50.688,50.688,65.344,32.672,65.344z M32.672,4C16.862,4,4,16.863,4,32.672c0,15.811,12.862,28.671,28.672,28.671 c15.811,0,28.672-12.86,28.672-28.671C61.344,16.863,48.482,4,32.672,4z"/> </g> <g> <path d="M32.672,41.441c-4.836,0-8.77-3.934-8.77-8.771c0-4.836,3.934-8.77,8.77-8.77s8.77,3.934,8.77,8.77 C41.441,37.508,37.508,41.441,32.672,41.441z M32.672,28.902c-2.078,0-3.77,1.691-3.77,3.77c0,2.079,1.691,3.77,3.77,3.77 s3.77-1.691,3.77-3.77C36.441,30.593,34.75,28.902,32.672,28.902z"/> </g> <g> <path d="M48.441,34.672c-1.104,0-2-0.895-2-2c0-7.592-6.177-13.77-13.77-13.77c-1.104,0-2-0.895-2-2c0-1.104,0.896-2,2-2 c9.798,0,17.77,7.973,17.77,17.77C50.441,33.777,49.546,34.672,48.441,34.672z"/> </g> <g> <path d="M48.441,34.672c-1.104,0-2-0.895-2-2c0-7.592-6.177-13.77-13.77-13.77c-1.104,0-2-0.895-2-2c0-1.104,0.896-2,2-2 c9.798,0,17.77,7.973,17.77,17.77C50.441,33.777,49.546,34.672,48.441,34.672z"/> </g> <g> <path d="M54.17,34.672c-1.104,0-2-0.895-2-2c0-10.75-8.747-19.498-19.498-19.498c-1.104,0-2-0.895-2-2c0-1.104,0.896-2,2-2 c12.957,0,23.498,10.541,23.498,23.498C56.17,33.777,55.275,34.672,54.17,34.672z"/> </g> </g> </g> </g>
</svg>