<?xml version="1.0" encoding="UTF-8" standalone="no"?><!DOCTYPE svg PUBLIC "-//W3C//DTD SVG 1.1//EN" "http://www.w3.org/Graphics/SVG/1.1/DTD/svg11.dtd"><svg width="100%" height="100%" viewBox="0 0 2134 2667" version="1.1" xmlns="http://www.w3.org/2000/svg" xmlns:xlink="http://www.w3.org/1999/xlink" xml:space="preserve" xmlns:serif="http://www.serif.com/" style="fill-rule:evenodd;clip-rule:evenodd;stroke-linejoin:round;stroke-miterlimit:2;"><g><g><path d="M1066.67,333.333c-552.667,0 -1000,447.25 -1000,1000c-0,552.671 447.25,1000 1000,1000c552.687,0 1000,-447.262 1000,-1000c-0,-552.666 -447.246,-1000 -1000,-1000Zm-0,1916.67c-505.454,0 -916.667,-411.212 -916.667,-916.667c0,-505.454 411.213,-916.666 916.667,-916.666c505.454,-0 916.666,411.212 916.666,916.666c0,505.455 -411.212,916.667 -916.666,916.667Z" style="fill:#0b2275;fill-rule:nonzero;"/><path d="M1066.67,625c-390.575,0 -708.334,317.758 -708.334,708.333c0,390.575 317.759,708.334 708.334,708.334c390.575,-0 708.333,-317.759 708.333,-708.334c0,-390.575 -317.758,-708.333 -708.333,-708.333Zm-0,1333.33c-344.625,0 -625,-280.375 -625,-625c-0,-344.625 280.375,-625 625,-625c344.629,0 625,280.375 625,625c-0,344.625 -280.371,625 -625,625Z" style="fill:#0b2275;fill-rule:nonzero;"/></g></g></svg>