<?xml version="1.0" encoding="UTF-8" standalone="no"?><!DOCTYPE svg PUBLIC "-//W3C//DTD SVG 1.1//EN" "http://www.w3.org/Graphics/SVG/1.1/DTD/svg11.dtd"><svg width="100%" height="100%" viewBox="0 0 134 134" version="1.1" xmlns="http://www.w3.org/2000/svg" xmlns:xlink="http://www.w3.org/1999/xlink" xml:space="preserve" xmlns:serif="http://www.serif.com/" style="fill-rule:evenodd;clip-rule:evenodd;stroke-linejoin:round;stroke-miterlimit:2;"><path d="M108.335,66.671c0,-2.291 -1.875,-4.166 -4.166,-4.166c-2.292,-0 -4.167,1.875 -4.167,4.166c0,2.292 1.875,4.167 4.167,4.167c2.291,0 4.166,-1.875 4.166,-4.167Zm-4.166,-8.333c4.583,0 8.333,3.75 8.333,8.333c0,4.625 -3.75,8.334 -8.333,8.334c-4.584,-0 -8.334,-3.709 -8.334,-8.334c0,-4.583 3.75,-8.333 8.334,-8.333Z" style="fill:#0b2275;fill-rule:nonzero;"/><path d="M66.669,45.838c11.5,0 20.833,9.333 20.833,20.833c0,11.5 -9.333,20.834 -20.833,20.834c-11.5,-0 -20.834,-9.334 -20.834,-20.834c0,-11.5 9.334,-20.833 20.834,-20.833Zm16.666,20.833c0,-9.208 -7.458,-16.666 -16.666,-16.666c-9.209,-0 -16.667,7.458 -16.667,16.666c0,9.209 7.458,16.667 16.667,16.667c9.208,0 16.666,-7.458 16.666,-16.667Z" style="fill:#0b2275;fill-rule:nonzero;"/><path d="M33.335,66.671c0,-2.291 -1.875,-4.166 -4.166,-4.166c-2.292,-0 -4.167,1.875 -4.167,4.166c0,2.292 1.875,4.167 4.167,4.167c2.291,0 4.166,-1.875 4.166,-4.167Zm-4.166,-8.333c4.583,0 8.333,3.75 8.333,8.333c0,4.625 -3.75,8.334 -8.333,8.334c-4.584,-0 -8.334,-3.709 -8.334,-8.334c0,-4.583 3.75,-8.333 8.334,-8.333Z" style="fill:#0b2275;fill-rule:nonzero;"/><path d="M15.585,60.213c-3.583,2.871 -4.125,8.125 -1.208,11.708c0.333,0.459 0.75,0.875 1.208,1.25c12.917,10.463 28.038,17.921 44.205,21.834c4.5,1.129 9.254,1.129 13.754,-0c16.166,-3.913 31.291,-11.371 44.204,-21.834c3.583,-2.912 4.125,-8.166 1.208,-11.745c-0.333,-0.459 -0.75,-0.875 -1.208,-1.209c-12.913,-10.504 -28.038,-17.962 -44.204,-21.879c-4.5,-1.129 -9.254,-1.129 -13.754,0c-16.163,3.917 -31.288,11.375 -44.205,21.875Zm41.542,38.417c-16.125,-4.125 -31.208,-11.75 -44.167,-22.25c-0.666,-0.542 -1.291,-1.167 -1.833,-1.834c-4.333,-5.375 -3.5,-13.25 1.833,-17.583c13.417,-10.875 29.08,-18.583 45.834,-22.662c5.162,-1.296 10.583,-1.296 15.746,-0c16.754,4.079 32.416,11.787 45.833,22.662c0.667,0.542 1.296,1.167 1.833,1.833c4.334,5.375 3.5,13.25 -1.833,17.584c-12.954,10.5 -28.038,18.125 -44.167,22.25c-0.541,0.166 -1.083,0.291 -1.666,0.416c-0.709,0.213 -1.417,0.334 -2.167,0.459c-0.583,0.087 -1.167,0.166 -1.75,0.254c-0.5,0.083 -1.042,0.121 -1.583,0.167c-0.788,0.037 -1.58,0.079 -2.371,0.079l-0.125,-0c-0.75,-0 -1.496,-0.042 -2.25,-0.084c-0.542,-0.045 -1.084,-0.087 -1.584,-0.166c-0.583,-0.088 -1.166,-0.167 -1.75,-0.254c-0.75,-0.125 -1.458,-0.25 -2.166,-0.459c-0.584,-0.121 -1.125,-0.246 -1.667,-0.412Z" style="fill:#0b2275;fill-rule:nonzero;"/></svg>