<?xml version="1.0" encoding="UTF-8" standalone="no"?><!DOCTYPE svg PUBLIC "-//W3C//DTD SVG 1.1//EN" "http://www.w3.org/Graphics/SVG/1.1/DTD/svg11.dtd"><svg width="100%" height="100%" viewBox="0 0 2134 2667" version="1.1" xmlns="http://www.w3.org/2000/svg" xmlns:xlink="http://www.w3.org/1999/xlink" xml:space="preserve" xmlns:serif="http://www.serif.com/" style="fill-rule:evenodd;clip-rule:evenodd;stroke-linejoin:round;stroke-miterlimit:2;"><path d="M690.333,1974.05c-131.205,-0.095 -239.117,-108.085 -239.117,-239.291c-0,-131.272 108.02,-239.292 239.291,-239.292c131.272,0 239.292,108.02 239.292,239.292c-0,63.523 -25.295,124.502 -70.257,169.375c-44.793,44.937 -105.76,70.128 -169.209,69.916Zm0,-411.916c-94.653,0.066 -172.503,77.971 -172.503,172.625c-0,94.699 77.925,172.625 172.625,172.625c94.699,-0 172.625,-77.926 172.625,-172.625c-0,-45.775 -18.207,-89.721 -50.58,-122.084c-32.326,-32.472 -76.347,-50.684 -122.167,-50.541Z" style="fill:#0b2275;fill-rule:nonzero;"/><path d="M1079.17,1585.05c-131.179,-0.068 -239.084,-108.029 -239.084,-239.208c0,-131.226 107.983,-239.208 239.209,-239.208c131.225,-0 239.208,107.982 239.208,239.208c-0,63.448 -25.244,124.36 -70.125,169.208c-44.829,44.894 -105.765,70.102 -169.208,70Zm-0,-411.75c-94.64,0.054 -172.487,77.944 -172.487,172.584c0,94.676 77.907,172.583 172.584,172.583c94.676,0 172.583,-77.907 172.583,-172.583c-0,-45.778 -18.214,-89.726 -50.597,-122.084c-32.334,-32.405 -76.306,-50.594 -122.083,-50.5Z" style="fill:#0b2275;fill-rule:nonzero;"/><path d="M1468.12,1196.26c-0.053,-0 -0.106,-0 -0.159,-0c-131.272,-0 -239.292,-108.02 -239.292,-239.292c0,-131.271 108.02,-239.292 239.292,-239.292c63.519,0 124.496,25.292 169.367,70.25c44.759,44.846 69.924,105.682 69.924,169.042c0,131.211 -107.921,239.204 -239.132,239.292Zm0,-411.917c-0.001,0 -0.002,0 -0.004,0c-94.699,0 -172.625,77.926 -172.625,172.625c0,94.699 77.926,172.625 172.625,172.625c94.7,0 172.625,-77.926 172.625,-172.625c0,-45.775 -18.207,-89.721 -50.579,-122.083c-32.285,-32.458 -76.262,-50.67 -122.042,-50.542Z" style="fill:#0b2275;fill-rule:nonzero;"/><path d="M696.583,2304.14c-8.825,-0.004 -17.297,-3.513 -23.541,-9.75l-86.125,-86.084l-1.125,1.125c-46.499,46.405 -122.918,46.405 -169.417,0l-219.208,-219.25c-46.405,-46.498 -46.405,-122.918 -0,-169.416l1.125,-1.125l-92.709,-92.709c-12.92,-12.928 -12.92,-34.196 0,-47.125l343.917,-343.916c-15.14,-25.856 -23.121,-55.284 -23.121,-85.247c-0,-92.55 76.157,-168.708 168.708,-168.708c29.962,-0 59.39,7.982 85.246,23.121l158.084,-158.083c-15.14,-25.856 -23.122,-55.284 -23.122,-85.246c0,-92.551 76.158,-168.709 168.709,-168.709c29.962,0 59.39,7.982 85.246,23.122l343.917,-343.917c12.928,-12.92 34.196,-12.92 47.125,0l92.708,92.708l1.125,-1.125c46.499,-46.405 122.918,-46.405 169.417,0l219.208,219.209c46.405,46.498 46.405,122.918 0,169.416l-1.125,1.125l86.125,86.125c12.92,12.929 12.92,34.197 0,47.125l-342.417,342.334c18.355,27.656 28.148,60.122 28.148,93.314c0,92.574 -76.176,168.75 -168.75,168.75c-33.192,0 -65.658,-9.793 -93.314,-28.148l-154.959,154.959c18.371,27.668 28.173,60.152 28.173,93.364c-0,92.596 -76.195,168.792 -168.792,168.792c-33.201,-0 -65.676,-9.796 -93.339,-28.156l-342.375,342.375c-6.244,6.237 -14.716,9.746 -23.542,9.75Zm-109.666,-176.334c8.839,-0.007 17.329,3.503 23.583,9.75l86.083,86.125l340.042,-340.083c6.25,-6.257 14.74,-9.776 23.583,-9.776c8.844,-0 17.334,3.519 23.584,9.776c19.125,19.131 45.095,29.89 72.146,29.89c55.963,-0 102.014,-46.051 102.014,-102.015c0,-27.04 -10.751,-53.002 -29.869,-72.125c-6.256,-6.25 -9.776,-14.74 -9.776,-23.583c0,-8.844 3.52,-17.334 9.776,-23.584l197.459,-197.458c6.25,-6.257 14.739,-9.776 23.583,-9.776c8.844,-0 17.333,3.519 23.583,9.776c19.124,19.118 45.085,29.869 72.125,29.869c55.964,0 102.015,-46.051 102.015,-102.015c0,-27.051 -10.759,-53.021 -29.89,-72.146c-6.256,-6.249 -9.776,-14.739 -9.776,-23.583c0,-8.844 3.52,-17.333 9.776,-23.583l340.084,-340.042l-86.209,-86.083c-6.256,-6.25 -9.776,-14.74 -9.776,-23.584c0,-8.843 3.52,-17.333 9.776,-23.583l24.709,-24.667c20.456,-20.623 20.456,-54.376 -0,-75l-219.209,-219.166c-20.604,-20.501 -54.396,-20.501 -75,-0l-24.708,24.666c-12.929,12.921 -34.196,12.921 -47.125,0l-92.75,-92.875l-340.292,340.375c-12.33,12.335 -32.363,13.014 -45.5,1.542c-18.574,-16.207 -42.408,-25.143 -67.059,-25.143c-55.956,0 -102,46.045 -102,102c-0,24.651 8.936,48.485 25.143,67.06c11.472,13.137 10.793,33.17 -1.542,45.5l-197.958,197.958c-12.331,12.335 -32.363,13.014 -45.5,1.542c-18.575,-16.207 -42.409,-25.143 -67.06,-25.143c-55.955,-0 -102,46.044 -102,102c0,24.651 8.936,48.485 25.143,67.059c11.472,13.137 10.793,33.17 -1.542,45.5l-340.291,340.209l92.708,92.708c12.92,12.929 12.92,34.196 -0,47.125l-24.667,24.708c-20.523,20.594 -20.523,54.406 0,75l219.167,219.542c20.624,20.457 54.376,20.457 75,0l24.833,-25c6.268,-6.217 14.756,-9.696 23.584,-9.667Z" style="fill:#0b2275;fill-rule:nonzero;"/><path d="M366.667,1655.35c-0.009,0 -0.018,0 -0.027,0c-18.286,0 -33.333,-15.047 -33.333,-33.333c0,-8.844 3.519,-17.334 9.776,-23.584l47.417,-47.416c6.321,-7.074 15.37,-11.124 24.856,-11.124c18.286,0 33.334,15.047 33.334,33.333c-0,9.518 -4.076,18.593 -11.19,24.916l-47.417,47.416c-6.206,6.222 -14.628,9.744 -23.416,9.792Z" style="fill:#0b2275;fill-rule:nonzero;"/><path d="M554.792,1467.05c-0.009,0 -0.018,0 -0.027,0c-18.286,0 -33.333,-15.047 -33.333,-33.333c0,-8.844 3.519,-17.333 9.776,-23.583l47.417,-47.417c6.25,-6.256 14.74,-9.775 23.583,-9.775c18.289,0 33.337,15.049 33.337,33.338c0,8.833 -3.51,17.313 -9.753,23.562l-47.459,47.417c-6.218,6.279 -14.704,9.809 -23.541,9.791Z" style="fill:#0b2275;fill-rule:nonzero;"/><path d="M743.083,1278.76c-0.008,-0 -0.017,-0 -0.026,-0c-18.286,-0 -33.333,-15.047 -33.333,-33.334c-0,-8.843 3.519,-17.333 9.776,-23.583l47.417,-47.417c6.25,-6.255 14.74,-9.774 23.583,-9.774c18.288,-0 33.337,15.049 33.337,33.337c0,8.833 -3.511,17.314 -9.754,23.562l-47.416,47.459c-6.255,6.247 -14.744,9.757 -23.584,9.75Z" style="fill:#0b2275;fill-rule:nonzero;"/><path d="M931.375,1090.47c-0.009,0 -0.017,0 -0.026,0c-18.286,0 -33.334,-15.047 -33.334,-33.333c0,-8.844 3.52,-17.334 9.777,-23.584l47.416,-47.416c6.253,-6.253 14.742,-9.769 23.584,-9.769c18.296,0 33.352,15.056 33.352,33.352c-0,8.842 -3.517,17.331 -9.769,23.583l-47.458,47.459c-6.251,6.221 -14.723,9.715 -23.542,9.708Z" style="fill:#0b2275;fill-rule:nonzero;"/><path d="M1119.67,902.178c-0.009,0 -0.018,0 -0.027,0c-18.286,0 -33.333,-15.047 -33.333,-33.333c0,-8.844 3.519,-17.333 9.776,-23.583l47.417,-47.417c6.29,-6.621 15.033,-10.374 24.166,-10.374c18.286,-0 33.333,15.047 33.333,33.333c0,9.133 -3.753,17.876 -10.374,24.166l-47.417,47.458c-6.244,6.237 -14.716,9.746 -23.541,9.75Z" style="fill:#0b2275;fill-rule:nonzero;"/><path d="M1307.96,713.887c-0.008,-0 -0.017,-0 -0.026,-0c-18.286,-0 -33.333,-15.047 -33.333,-33.334c-0,-8.843 3.519,-17.333 9.776,-23.583l47.417,-47.417c6.248,-6.243 14.729,-9.753 23.562,-9.753c18.288,-0 33.337,15.049 33.337,33.337c0,8.843 -3.518,17.333 -9.774,23.583l-47.417,47.417c-6.244,6.237 -14.716,9.746 -23.542,9.75Z" style="fill:#0b2275;fill-rule:nonzero;"/><path d="M784.583,2073.43c-18.249,-0.053 -33.235,-15.084 -33.235,-33.333c0,-8.782 3.471,-17.219 9.652,-23.458l47.333,-47.542c6.193,-5.884 14.417,-9.167 22.959,-9.167c18.287,-0 33.334,15.047 33.334,33.333c-0,8.542 -3.284,16.766 -9.168,22.959l-47.125,47.417c-6.288,6.303 -14.846,9.832 -23.75,9.791Z" style="fill:#0b2275;fill-rule:nonzero;"/><path d="M972.875,1885.14c-0.009,-0 -0.017,-0 -0.026,-0c-18.286,-0 -33.334,-15.047 -33.334,-33.334c0,-8.843 3.52,-17.333 9.777,-23.583l47.416,-47.417c6.291,-6.621 15.034,-10.374 24.166,-10.374c18.286,0 33.334,15.047 33.334,33.333c-0,9.133 -3.754,17.876 -10.375,24.166l-47.416,47.417c-6.237,6.252 -14.711,9.777 -23.542,9.792Z" style="fill:#0b2275;fill-rule:nonzero;"/><path d="M1161.12,1696.85c-0.023,0 -0.045,0 -0.068,0c-18.286,0 -33.333,-15.047 -33.333,-33.333c-0,-8.844 3.519,-17.334 9.776,-23.584l47.417,-47.416c6.193,-5.884 14.416,-9.168 22.959,-9.168c18.286,0 33.333,15.048 33.333,33.334c0,8.542 -3.284,16.766 -9.167,22.959l-47.334,47.416c-6.247,6.263 -14.737,9.788 -23.583,9.792Z" style="fill:#0b2275;fill-rule:nonzero;"/><path d="M1349.46,1508.55c-0.008,0 -0.017,0 -0.026,0c-18.286,0 -33.333,-15.047 -33.333,-33.333c-0,-8.844 3.519,-17.333 9.776,-23.583l47.417,-47.5c6.29,-6.621 15.033,-10.375 24.166,-10.375c18.286,0 33.333,15.048 33.333,33.334c-0,9.132 -3.753,17.875 -10.374,24.166l-47.417,47.416c-6.208,6.307 -14.693,9.866 -23.542,9.875Z" style="fill:#0b2275;fill-rule:nonzero;"/><path d="M1537.71,1320.26c-18.28,-0.009 -33.318,-15.053 -33.318,-33.334c0,-8.843 3.52,-17.333 9.777,-23.583l47.416,-47.417c6.193,-5.883 14.417,-9.167 22.959,-9.167c18.287,0 33.334,15.047 33.334,33.333c-0,8.543 -3.284,16.766 -9.168,22.959l-47.416,47.417c-6.248,6.263 -14.738,9.788 -23.584,9.792Z" style="fill:#0b2275;fill-rule:nonzero;"/><path d="M1726,1131.97c-0.023,0 -0.046,0 -0.068,0c-18.286,0 -33.334,-15.047 -33.334,-33.333c0,-8.885 3.552,-17.41 9.86,-23.667l47.542,-47.333c6.245,-6.202 14.699,-9.686 23.5,-9.686c18.296,0 33.352,15.056 33.352,33.352c0,8.883 -3.549,17.408 -9.852,23.667l-47.417,47.208c-6.247,6.263 -14.737,9.788 -23.583,9.792Z" style="fill:#0b2275;fill-rule:nonzero;"/></svg>