<?xml version="1.0" encoding="iso-8859-1"?>
<!-- Uploaded to: SVG Repo, www.svgrepo.com, Generator: SVG Repo Mixer Tools -->
<svg fill="#000000" height="800px" width="800px" version="1.1" id="Layer_1" xmlns="http://www.w3.org/2000/svg" xmlns:xlink="http://www.w3.org/1999/xlink" 
	 viewBox="0 0 512 512" xml:space="preserve">
<g>
	<g>
		<path d="M504.321,235.712l-81.739-81.144c-3.58-3.557-8.5-5.553-13.546-5.553h-25.991c-10.551,0-19.104,8.554-19.104,19.104
			c0,10.551,8.554,19.104,19.104,19.104h18.114l44.961,44.577H312.398c-4.637,0-9.179,0.806-13.023,3.601
			c-4.945,3.594-7.713,9.389-7.713,15.504v3.84c-11.463-5.147-23.095-7.933-35.501-7.933c-12.529,0-24.841,2.84-35.822,8.085
			c0,0,0.33-2.776,0.33-3.992c0-10.551-8.554-19.104-19.104-19.104H65.898l45.354-44.577h17.385
			c10.551,0,19.104-8.554,19.104-19.104c0-10.551-8.554-19.104-19.104-19.104h-25.201c-5.009,0-9.818,1.968-13.392,5.479
			L5.712,237.38C2.058,240.971,0,245.881,0,251.005v36.292c0,41.734,34.635,75.688,77.208,75.688h67.197
			c20.364,0,39.443-7.816,53.722-22.008c9.862-9.802,16.672-21.891,19.958-35.123c0.392-0.469,0.785-0.939,1.139-1.453
			c8.336-12.134,22.086-19.38,36.78-19.38c14.693,0,28.441,7.243,36.777,19.376c0.253,0.369,0.532,0.709,0.806,1.055
			c8.249,32.993,38.437,57.534,74.328,57.534h67.197c42.221,0,76.889-33.954,76.889-75.688v-36.391
			C512,244.711,508.892,239.203,504.321,235.712z M182.129,287.297c0,21.016-16.571,37.479-37.725,37.479H77.208
			c-21.504,0-38.999-16.813-38.999-37.479V270.01h143.92V287.297z M473.791,287.297c0,20.666-17.528,37.479-38.68,37.479h-67.197
			c-21.152,0-38.043-16.813-38.043-37.479V270.01h143.92V287.297z"/>
	</g>
</g>
</svg>