<?xml version="1.0" encoding="UTF-8" standalone="no"?><!DOCTYPE svg PUBLIC "-//W3C//DTD SVG 1.1//EN" "http://www.w3.org/Graphics/SVG/1.1/DTD/svg11.dtd"><svg width="100%" height="100%" viewBox="0 0 2250 1016" version="1.1" xmlns="http://www.w3.org/2000/svg" xmlns:xlink="http://www.w3.org/1999/xlink" xml:space="preserve" xmlns:serif="http://www.serif.com/" style="fill-rule:evenodd;clip-rule:evenodd;stroke-linejoin:round;stroke-miterlimit:2;"><g><g opacity="0.5"><path d="M214.807,277.355c-0,29.743 24.086,53.827 53.827,53.827c29.741,0 53.83,-24.084 53.83,-53.827c-0,-29.741 -24.089,-53.827 -53.83,-53.827c-29.741,-0 -53.827,24.086 -53.827,53.827m143.053,-0c-0,49.16 -40.066,89.223 -89.226,89.223c-49.157,-0 -89.223,-40.063 -89.223,-89.223c-0,-49.16 40.066,-89.221 89.223,-89.221c49.16,0 89.226,40.061 89.226,89.221" style="fill:#0b2275;fill-rule:nonzero;"/></g><g opacity="0.2"><path d="M226.781,78.878c-0,23.127 18.728,41.855 41.855,41.855c23.124,-0 41.855,-18.728 41.855,-41.855c0,-23.125 -18.731,-41.856 -41.855,-41.856c-23.127,0 -41.855,18.731 -41.855,41.856m111.23,-0c0,38.223 -31.152,69.375 -69.375,69.375c-38.226,0 -69.378,-31.152 -69.378,-69.375c-0,-38.226 31.152,-69.373 69.378,-69.373c38.223,-0 69.375,31.147 69.375,69.373" style="fill:#0b2275;fill-rule:nonzero;"/></g><g opacity="0.5"><path d="M322.464,738.27c0,-29.743 -24.086,-53.83 -53.829,-53.83c-29.739,0 -53.828,24.087 -53.828,53.83c0,29.739 24.089,53.827 53.828,53.827c29.743,0 53.829,-24.088 53.829,-53.827m-143.053,0c0,-49.16 40.066,-89.223 89.224,-89.223c49.159,0 89.225,40.063 89.225,89.223c0,49.16 -40.066,89.218 -89.225,89.218c-49.158,0 -89.224,-40.058 -89.224,-89.218" style="fill:#0b2275;fill-rule:nonzero;"/></g><g opacity="0.2"><path d="M310.49,936.747c0,-23.127 -18.728,-41.855 -41.855,-41.855c-23.124,0 -41.855,18.728 -41.855,41.855c-0,23.125 18.731,41.856 41.855,41.856c23.127,-0 41.855,-18.731 41.855,-41.856m-111.23,0c-0,-38.225 31.152,-69.378 69.375,-69.378c38.226,0 69.378,31.153 69.378,69.378c0,38.224 -31.152,69.373 -69.378,69.373c-38.223,0 -69.375,-31.149 -69.375,-69.373" style="fill:#0b2275;fill-rule:nonzero;"/></g><path d="M207.488,507.809c-0,33.79 27.36,61.147 61.147,61.147c33.784,0 61.149,-27.357 61.149,-61.147c0,-33.784 -27.365,-61.147 -61.149,-61.147c-33.787,0 -61.147,27.363 -61.147,61.147m162.504,0c0,55.843 -45.512,101.358 -101.357,101.358c-55.843,-0 -101.355,-45.515 -101.355,-101.358c-0,-55.842 45.512,-101.35 101.355,-101.35c55.845,0 101.357,45.508 101.357,101.35" style="fill:#0b2275;fill-rule:nonzero;"/><path d="M442.593,566.724l72.873,-0l-0,38.812l-111.967,-0l0,-195.449l39.094,0l0,156.637Z" style="fill:#0b2275;fill-rule:nonzero;"/><path d="M590.855,566.724l72.873,-0l-0,38.812l-111.967,-0l0,-195.449l39.094,0l-0,156.637Z" style="fill:#0b2275;fill-rule:nonzero;"/><rect x="694.447" y="410.087" width="130.393" height="39.089" style="fill:#0b2275;"/><rect x="694.45" y="488.404" width="89.667" height="39.089" style="fill:#0b2275;"/><rect x="694.45" y="566.724" width="129.556" height="39.091" style="fill:#0b2275;"/><path d="M897.438,448.896l0,156.642l-39.094,-0l0,-195.731l76.505,0c32.391,0 58.64,26.523 58.64,58.914c-0,23.733 -13.962,44.114 -34.345,53.33l56.111,83.766l-45.929,-0l-49.553,-78.459l0,-39.089l15.076,0c10.894,0 19.549,-8.66 19.549,-19.548c-0,-10.888 -8.655,-19.825 -19.549,-19.825l-37.411,0Z" style="fill:#0b2275;fill-rule:nonzero;"/><path d="M1249.95,410.086l-0,39.089l-54.168,0l0,156.642l-39.089,-0l0,-156.642l-54.449,0l0,-39.089l147.706,0Z" style="fill:#da3932;fill-rule:nonzero;"/><path d="M1562.4,457.555c-37.978,-24.574 -95.216,-1.678 -95.216,50.817c0,55.002 60.591,77.061 97.447,49.139l25.129,28.759c-17.586,14.521 -40.208,23.452 -64.777,23.452c-55.842,0 -101.355,-45.513 -101.355,-101.35c0,-55.842 45.513,-101.355 101.355,-101.355c23.455,-0 45.231,8.096 62.546,21.497l-25.129,29.041Z" style="fill:#da3932;fill-rule:nonzero;"/><path d="M1737.47,410.365l39.088,0l0,195.452l-39.088,-0l-0,-81.531l-72.32,0l0,81.531l-39.089,-0l0,-195.452l39.089,0l0,74.833l72.32,-0l-0,-74.833Z" style="fill:#da3932;fill-rule:nonzero;"/><path d="M1961.96,605.816l-110.012,-114.2l0,114.2l-39.089,0l0,-195.73l12.285,-0l108.055,109.451l0,-109.451l39.091,-0l0,195.73l-10.33,0Z" style="fill:#da3932;fill-rule:nonzero;"/><rect x="2008.59" y="410.087" width="39.094" height="195.451" style="fill:#da3932;"/><path d="M2214.38,457.555c-37.977,-24.574 -95.216,-1.678 -95.216,50.817c0,55.002 60.591,77.061 97.447,49.139l25.129,28.759c-17.586,14.521 -40.208,23.452 -64.776,23.452c-55.843,0 -101.355,-45.513 -101.355,-101.35c-0,-55.842 45.512,-101.355 101.355,-101.355c23.454,-0 45.228,8.096 62.545,21.497l-25.129,29.041Z" style="fill:#da3932;fill-rule:nonzero;"/><path d="M47.358,448.896l-0,156.642l-39.094,-0l-0,-195.731l76.505,0c32.391,0 58.639,26.523 58.639,58.914c0,23.733 -13.962,44.114 -34.345,53.33l56.112,83.766l-45.929,-0l-49.553,-78.459l-0,-39.089l15.076,0c10.893,0 19.548,-8.66 19.548,-19.548c-0,-10.888 -8.655,-19.825 -19.548,-19.825l-37.411,0Z" style="fill:#0b2275;fill-rule:nonzero;"/><rect x="1276.48" y="410.087" width="130.393" height="39.089" style="fill:#da3932;"/><rect x="1276.48" y="488.404" width="89.667" height="39.089" style="fill:#da3932;"/><rect x="1276.48" y="566.724" width="129.556" height="39.091" style="fill:#da3932;"/></g></svg>